AB08_12Mar_ss_12ms_01
version=1
nRows=48
nColumns=19
inDegrees=yes
endheader
time	ground_force1_vx	ground_force1_vy	ground_force1_vz	ground_force1_px	ground_force1_py	ground_force1_pz	ground_torque1_x	ground_torque1_y	ground_torque1_z	ground_force2_vx	ground_force2_vy	ground_force2_vz	ground_force2_px	ground_force2_py	ground_force2_pz	ground_torque2_x	ground_torque2_y	ground_torque2_z
15.285000	-0.000000	-0.000000	0.000000	0.238500	0.000000	-0.812500	0.000000	0.000000	-0.000000	-48.558655	630.606506	12.214659	0.571469	0.000000	-0.917994	0.000043	-15.755737	-0.000004	
15.286000	-0.000000	-0.000000	0.000000	0.238500	0.000000	-0.812500	0.000000	0.000000	-0.000000	-44.438782	629.694641	3.974912	0.574775	0.000000	-0.916234	-0.000005	-15.921967	-0.000008	
15.287000	-0.000000	-0.000000	0.000000	0.238500	0.000000	-0.812500	0.000000	0.000000	-0.000000	-36.199036	632.126282	2.601621	0.578694	0.000000	-0.911170	0.000008	-15.535266	0.000016	
15.288000	-0.000000	-0.000000	0.000000	0.238500	0.000000	-0.812500	0.000000	0.000000	-0.000000	-33.910217	635.469788	5.653379	0.579051	0.000000	-0.912117	0.000033	-11.403820	0.000019	
15.289000	-0.000000	-0.000000	0.000000	0.238500	0.000000	-0.812500	0.000000	0.000000	-0.000000	-34.978333	634.861877	4.127501	0.577238	0.000000	-0.912991	0.000009	-7.319873	0.000005	
15.290000	-0.000000	-0.000000	0.000000	0.238500	0.000000	-0.812500	0.000000	0.000000	-0.000000	-41.844788	631.518372	1.533506	0.570831	0.000000	-0.909736	0.000030	-14.026477	0.000003	
15.291000	-0.000000	-0.000000	0.000000	0.238500	0.000000	-0.812500	0.000000	0.000000	-0.000000	-45.659485	626.047180	1.991270	0.567012	0.000000	-0.906031	0.000030	-15.907865	0.000054	
15.292000	-0.000000	-0.000000	0.000000	0.238500	0.000000	-0.812500	0.000000	0.000000	-0.000000	-36.504211	626.655090	3.517149	0.573973	0.000000	-0.903988	0.000007	-14.904034	0.000030	
15.293000	-0.000000	-0.000000	0.000000	0.238500	0.000000	-0.812500	0.000000	0.000000	-0.000000	-36.656799	632.734192	5.653379	0.577740	0.000000	-0.902607	0.000034	-19.737880	0.000031	
15.294000	-0.000000	-0.000000	0.000000	0.238500	0.000000	-0.812500	0.000000	0.000000	-0.000000	-40.318909	630.606506	2.601621	0.574615	0.000000	-0.902952	0.000020	-21.257358	0.000011	
15.295000	-0.000000	-0.000000	0.000000	0.238500	0.000000	-0.812500	0.000000	0.000000	-0.000000	-39.403381	632.126282	1.228330	0.574953	0.000000	-0.901551	0.000022	-15.597076	0.000026	
15.296000	-0.000000	-0.000000	0.000000	0.238500	0.000000	-0.812500	0.000000	0.000000	-0.000000	-43.675842	637.901428	5.195616	0.575383	0.000000	-0.902540	0.000025	-18.087457	-0.000002	
15.297000	-0.000000	-0.000000	0.000000	0.238500	0.000000	-0.812500	0.000000	0.000000	-0.000000	-46.727600	637.597473	6.263731	0.574958	0.000000	-0.906785	0.000030	-20.452185	0.000023	
15.298000	-0.000000	-0.000000	0.000000	0.238500	0.000000	-0.812500	0.000000	0.000000	-0.000000	-44.438782	633.950012	2.754209	0.573310	0.000000	-0.904712	0.000024	-14.954372	0.000019	
15.299000	-0.000000	-0.000000	0.000000	0.238500	0.000000	-0.812500	0.000000	0.000000	-0.000000	-46.117249	631.214417	1.991270	0.570882	0.000000	-0.899385	0.000017	-14.220415	0.000021	
15.300000	-0.000000	-0.000000	0.000000	0.238500	0.000000	-0.812500	0.000000	0.000000	-0.000000	-48.558655	631.518372	3.211973	0.570469	0.000000	-0.897797	0.000012	-15.402311	0.000017	
15.301000	-0.000000	-0.000000	0.000000	0.238500	0.000000	-0.812500	0.000000	0.000000	-0.000000	-45.506897	635.165833	2.601621	0.574782	0.000000	-0.899534	0.000024	-10.259105	0.000021	
15.302000	-0.000000	-0.000000	0.000000	0.238500	0.000000	-0.812500	0.000000	0.000000	-0.000000	-42.149963	634.557922	1.228330	0.576692	0.000000	-0.896946	0.000021	-10.631572	0.000032	
15.303000	-0.000000	-0.000000	0.000000	0.238500	0.000000	-0.812500	0.000000	0.000000	-0.000000	-45.964661	630.302551	-0.297548	0.572974	0.000000	-0.896056	0.000029	-14.437859	0.000034	
15.304000	-0.000000	-0.000000	0.000000	0.238500	0.000000	-0.812500	0.000000	0.000000	-0.000000	-46.422424	633.646057	1.991270	0.573844	0.000000	-0.894015	0.000032	-15.177722	0.000042	
15.305000	-0.000000	-0.000000	0.000000	0.238500	0.000000	-0.812500	0.000000	0.000000	-0.000000	-45.354309	634.557922	2.754209	0.573205	0.000000	-0.894263	0.000039	-13.867289	0.000017	
15.306000	-0.000000	-0.000000	0.000000	0.238500	0.000000	-0.812500	0.000000	0.000000	-0.000000	-48.100891	636.685608	-1.823427	0.570563	0.000000	-0.892803	0.000043	-16.702230	0.000000	
15.307000	-0.000000	-0.000000	0.000000	0.238500	0.000000	-0.812500	0.000000	0.000000	-0.000000	-47.643127	639.117249	-6.248476	0.570993	0.000000	-0.894734	0.000028	-20.352969	0.000018	
15.308000	-0.000000	-0.000000	0.000000	0.238500	0.000000	-0.812500	0.000000	0.000000	-0.000000	-40.624084	640.637024	-4.417421	0.576575	0.000000	-0.892231	0.000021	-18.540574	0.000017	
15.309000	-0.000000	-0.000000	0.000000	0.238500	0.000000	-0.812500	0.000000	0.000000	-0.000000	-39.403381	640.940979	-2.128603	0.577712	0.000000	-0.888014	0.000042	-17.681475	0.000020	
15.310000	-0.000000	-0.000000	0.000000	0.238500	0.000000	-0.812500	0.000000	0.000000	-0.000000	-43.065491	642.156799	-3.196718	0.575239	0.000000	-0.881030	0.000031	-18.937064	0.000049	
15.311000	-0.000000	-0.000000	0.000000	0.238500	0.000000	-0.812500	0.000000	0.000000	-0.000000	-43.523254	640.029114	-5.943300	0.572510	0.000000	-0.885859	0.000003	-15.873028	0.000019	
15.312000	-0.000000	-0.000000	0.000000	0.238500	0.000000	-0.812500	0.000000	0.000000	-0.000000	-40.318909	644.588440	-5.485537	0.573754	0.000000	-0.889403	0.000034	-13.987220	0.000006	
15.313000	-0.000000	-0.000000	0.000000	0.238500	0.000000	-0.812500	0.000000	0.000000	-0.000000	-41.387024	643.372620	-4.722597	0.571709	0.000000	-0.891084	0.000027	-13.898779	-0.000005	
15.314000	-0.000000	-0.000000	0.000000	0.238500	0.000000	-0.812500	0.000000	0.000000	-0.000000	-41.844788	641.548889	-5.180361	0.573799	0.000000	-0.887551	0.000012	-11.977312	0.000008	
15.315000	-0.000000	-0.000000	0.000000	0.238500	0.000000	-0.812500	0.000000	0.000000	-0.000000	-40.166321	643.372620	-2.891543	0.576926	0.000000	-0.879365	0.000019	-14.109845	0.000007	
15.316000	-0.000000	-0.000000	0.000000	0.238500	0.000000	-0.812500	0.000000	0.000000	-0.000000	-43.828430	643.980530	-1.976015	0.574450	0.000000	-0.881178	0.000038	-16.196017	0.000010	
15.317000	-0.000000	-0.000000	0.000000	0.238500	0.000000	-0.812500	0.000000	0.000000	-0.000000	-43.523254	646.716125	-4.112246	0.574101	0.000000	-0.883092	0.000055	-13.679459	0.000003	
15.318000	-0.000000	-0.000000	0.000000	0.238500	0.000000	-0.812500	0.000000	0.000000	-0.000000	-45.659485	648.539856	-8.079531	0.572968	0.000000	-0.882109	0.000004	-13.035584	0.000035	
15.319000	-0.000000	-0.000000	0.000000	0.238500	0.000000	-0.812500	0.000000	0.000000	-0.000000	-51.152649	647.020081	-8.232119	0.569568	0.000000	-0.876663	0.000027	-18.444258	0.000003	
15.320000	-0.000000	-0.000000	0.000000	0.238500	0.000000	-0.812500	0.000000	0.000000	-0.000000	-49.169006	647.627991	-5.332949	0.572886	0.000000	-0.869831	0.000011	-17.521097	0.000016	
15.321000	-0.000000	-0.000000	0.000000	0.238500	0.000000	-0.812500	0.000000	0.000000	-0.000000	-42.760315	652.187317	-7.469179	0.578909	0.000000	-0.872701	0.000061	-15.955150	0.000038	
15.322000	-0.000000	-0.000000	0.000000	0.238500	0.000000	-0.812500	0.000000	0.000000	-0.000000	-45.049133	657.050598	-11.436464	0.577710	0.000000	-0.875866	0.000006	-21.834254	-0.000017	
15.323000	-0.000000	-0.000000	0.000000	0.238500	0.000000	-0.812500	0.000000	0.000000	-0.000000	-49.321594	655.226868	-12.351992	0.571623	0.000000	-0.876448	0.000048	-20.447257	0.000029	
15.324000	-0.000000	-0.000000	0.000000	0.238500	0.000000	-0.812500	0.000000	0.000000	-0.000000	-48.406067	657.354553	-10.826113	0.572319	0.000000	-0.875091	0.000019	-13.137683	0.000026	
15.325000	-0.000000	-0.000000	0.000000	0.238500	0.000000	-0.812500	0.000000	0.000000	-0.000000	-50.542297	660.394104	-12.046816	0.571820	0.000000	-0.876219	0.000035	-15.604069	0.000019	
15.326000	-0.000000	-0.000000	0.000000	0.238500	0.000000	-0.812500	0.000000	0.000000	-0.000000	-51.763000	657.354553	-14.488222	0.570694	0.000000	-0.876571	-0.000007	-20.133619	0.000001	
15.327000	-0.000000	-0.000000	0.000000	0.238500	0.000000	-0.812500	0.000000	0.000000	-0.000000	-44.591370	651.579407	-14.640810	0.575738	0.000000	-0.872395	0.000021	-16.460903	0.000026	
15.328000	-0.000000	-0.000000	0.000000	0.238500	0.000000	-0.812500	0.000000	0.000000	-0.000000	-41.997375	653.099182	-11.589052	0.577581	0.000000	-0.864034	0.000045	-18.839257	0.000024	
15.329000	-0.000000	-0.000000	0.000000	0.238500	0.000000	-0.812500	0.000000	0.000000	-0.000000	-48.558655	656.138733	-7.469179	0.572636	0.000000	-0.858548	0.000053	-21.150492	0.000028	
15.330000	-0.000000	-0.000000	0.000000	0.238500	0.000000	-0.812500	0.000000	0.000000	-0.000000	-50.542297	659.482239	-9.300234	0.568846	0.000000	-0.861203	0.000039	-14.575620	0.000037	
15.331000	-0.000000	-0.000000	0.000000	0.238500	0.000000	-0.812500	0.000000	0.000000	-0.000000	-49.016418	668.600891	-14.945986	0.571067	0.000000	-0.869466	-0.000010	-13.665428	-0.000007	
15.332000	-0.000000	-0.000000	0.000000	0.238500	0.000000	-0.812500	0.000000	0.000000	-0.000000	-48.711243	671.944397	-16.471865	0.572351	0.000000	-0.874551	0.000015	-17.438369	0.000021	
